<?xml version="1.0" encoding="utf-8"?>
<!-- Generator: Adobe Illustrator 22.1.0, SVG Export Plug-In . SVG Version: 6.00 Build 0)  -->
<svg version="1.1" id="Layer_1" xmlns="http://www.w3.org/2000/svg" xmlns:xlink="http://www.w3.org/1999/xlink" x="0px" y="0px"
	 viewBox="0 0 1062.7 560.2" style="enable-background:new 0 0 1062.7 560.2;" xml:space="preserve">
<style type="text/css">
	.st0{fill:#94C11F;}
</style>
<path class="st0" d="M443,18v45.1c0,0-94.1-7.5-187.2,10.5S40,146.3,96.1,224c0,0,31,36.8,94.9,49.6c0,0,64.6,15.3,115.4,19.3
	s167.7,7.3,167.7,7.3s8.8,1.8,0,3.5s-67.3,8.5-148.2,4s-133.4-16.3-169.7-24.8S13.5,235,4,171.6s96.9-105.7,96.9-105.7
	S185.2,28.6,285.4,21S443,18,443,18z"/>
<path class="st0" d="M490.5,41.8l33-36.4c0,0-13,60.1-13,100.9c0,0-1,63.5,5,97.6s13.7,63.8,13.7,63.8s14.4,50.1,53.7,103.6
	s111.8,107.6,165.2,129.6c53.4,22,153.8,54.1,211.9,3.7c0,0,57.1-43.1,16.4-126.3c0,0-30.3-76.2-213.4-69c-2.3,0.1-4.7,0.1-7,0.1
	c-170.6-3.6-184.1-4.9-185.7-5.9c-1.7-1-1-6.7,76.1-8.4s156.2-2,156.2-2s126.1-7.7,190.6,43.8s87.1,128.3,18.4,190.1
	s-229.9,6.7-266.3-12.7c-36.4-19.4-47.1-19.4-124.5-80.8S511.5,288.7,511.5,288.7s-24.7-66.5-25.1-161.2c0-8.4,0-17,0.2-25.9
	c0.1-6.3,0.5-12.7,1-19C488.3,73.7,488.9,60.6,490.5,41.8z"/>
</svg>
