
<svg version="1.1" id="Layer_1" xmlns="http://www.w3.org/2000/svg" xmlns:xlink="http://www.w3.org/1999/xlink" x="0px" y="0px"
	 viewBox="0 0 544.3 127" style="enable-background:new 0 0 544.3 127;" xml:space="preserve">
<style type="text/css">
	.st0{fill:#94C13D;}
	.st1{fill:#585757;}
	.st2{fill:#9C9C9B;}
</style>
<g>
	<path class="st0" d="M93.9,14.1v8.4c0,0-18-1.4-35.7,2C40.4,27.9,17,38.1,27.7,52.7c0,0,5.9,6.9,18.1,9.3c0,0,12.4,2.5,22,3.6
		c10.6,1.2,33.7,1.7,32,2c-1.7,0.3-12.8,1.6-28.3,0.7c-15.4-0.8-25.5-3-32.4-4.6c-6.9-1.6-27.2-9-29.1-20.8
		C8.3,31,28.6,23.1,28.6,23.1s16.1-7,35.2-8.4C83,13.2,93.9,14.1,93.9,14.1"/>
	<path class="st0" d="M101.4,18.6l6.2-6.8c0,0-2.5,11.3-2.5,18.9c0,0-0.2,11.9,0.9,18.3c1.1,6.4,2.6,11.9,2.6,11.9
		s2.7,9.4,10.2,19.4c7.4,10,21.2,20.1,31.3,24.3c10.1,4.1,29.1,10.1,40.1,0.7c0,0,12.3-11.2,3.1-23.6c0,0-5-11.9-40.4-12.9
		c-0.4,0-36.2-0.9-36.5-1.1c-0.3-0.2,0.5-0.8,14.4-1.6c14.6-0.8,22.8-1,22.8-1s29.8-0.4,42.9,8.9c12.9,9.1,16.7,25.8,3.5,35.6
		c-15.3,11.2-52.1,7-75.2-15.7c-13.3-13.1-19.5-29-19.5-29s-4.7-12.5-4.7-30.2c0-1.6,0-3.2,0-4.9c0-1.2,0.1-2.4,0.2-3.6
		C101,24.6,101.1,22.1,101.4,18.6"/>
	<path class="st1" d="M159.6,31.9h-4.1c-1.3-2-3.1-3.6-5.5-4.8c-2.3-1.2-4.8-1.8-7.4-1.8c-4.1,0-7.7,1.5-10.8,4.6
		c-3.1,3.1-4.6,6.6-4.6,10.7c0,4.3,1.6,7.9,4.7,11c3.1,3.1,6.8,4.6,11,4.6c2.5,0,4.9-0.6,7.1-1.8c2.3-1.2,4.1-2.8,5.6-4.9h4.1
		c-1.6,3.1-3.9,5.5-7,7.4c-3.1,1.9-6.4,2.8-9.8,2.8c-5.4,0-10-1.8-13.7-5.5c-3.7-3.7-5.6-8.2-5.6-13.6c0-5.2,1.8-9.6,5.5-13.3
		c3.7-3.7,8.2-5.5,13.4-5.5c2,0,3.9,0.3,5.6,0.8c0.9,0.2,1.8,0.5,2.6,0.9c0.8,0.4,1.6,0.8,2.4,1.4c1.3,0.8,2.5,1.8,3.7,3
		C158.2,29.3,159.1,30.6,159.6,31.9"/>
	<polygon class="st1" points="172.1,59.2 172.1,27.7 189.3,27.7 189.3,30.6 175.3,30.6 175.3,41.9 188.9,41.9 188.9,44.8 
		175.3,44.8 175.3,56.4 189.3,56.4 189.3,59.2 	"/>
	<path class="st1" d="M200.9,59.2V27.7h7.5h0.9h0.9h0.8c0.3,0,0.5,0,0.7,0.1c0.2,0,0.5,0,0.7,0c0.2,0,0.4,0,0.7,0.1
		c0.4,0,0.9,0.2,1.5,0.3c1,0.2,1.9,0.5,2.7,1c1.6,0.9,2.8,2.1,3.6,3.7c0.9,1.6,1.3,3.3,1.3,5.1c0,2.6-0.9,4.8-2.7,6.7
		c-1.8,1.9-4,2.8-6.6,2.8l8.9,11.8l-3.9,0l-10.7-14.3h0.9h0.8h0.5h0.4h0.3h0.3h0.2c0.6,0,1,0,1.3-0.1c1.1-0.1,2-0.4,2.9-0.7
		c1.3-0.6,2.3-1.5,3-2.6c0.7-1.2,1.1-2.4,1.1-3.8c0-1.1-0.3-2.2-0.8-3.2c-0.5-1-1.2-1.8-2.1-2.4c-0.9-0.6-2-1-3.4-1.3
		c-0.8-0.1-2.1-0.2-3.7-0.2h-5v28.7L200.9,59.2L200.9,59.2z"/>
	<polygon class="st1" points="243,59.2 230,27.7 233.4,27.7 244.5,55.3 255.6,27.7 259.1,27.7 246,59.2 	"/>
	<rect x="268.7" y="27.7" class="st1" width="3.2" height="31.5"/>
	<polygon class="st1" points="284.3,59.2 284.3,27.7 288.6,27.7 306.2,53.8 306.2,27.7 309.4,27.7 309.4,59.2 306.2,59.2 
		287.5,31.5 287.5,59.2 	"/>
	<rect x="321.9" y="27.7" class="st1" width="3.2" height="31.5"/>
	<path class="st1" d="M358.7,59.2V22.5h8.6c1.8,0,3.3,0.1,4.6,0.3c1.3,0.2,2.6,0.7,3.8,1.5c1.3,0.8,2.3,2,3.1,3.4
		c0.8,1.4,1.2,2.9,1.2,4.5c0,1.6-0.3,2.9-1,4.1c-0.7,1.2-1.7,2.3-3.1,3.2c1.9,0.8,3.4,2,4.5,3.6c1.1,1.6,1.6,3.5,1.6,5.7
		c0,1.7-0.4,3.3-1.2,4.8c-0.8,1.5-1.9,2.7-3.3,3.6c-1.4,0.9-3,1.5-4.9,1.7l-2.2,0.2l-3.1,0.1L358.7,59.2L358.7,59.2z M362.4,38.2h4
		h0.9c1.4,0,2.6-0.1,3.5-0.2c0.9-0.1,1.8-0.4,2.6-0.9c0.9-0.5,1.6-1.2,2.1-2.2c0.5-1,0.8-2,0.8-3c0-1-0.3-1.9-0.8-2.8
		c-0.5-0.9-1.2-1.6-2-2.2c-0.8-0.5-2-0.9-3.3-1.1c-0.9-0.1-2-0.1-3.5-0.1h-4.3L362.4,38.2L362.4,38.2z M362.4,55.9h4.5h0.9
		c1,0,1.9,0,2.5,0c0.7,0,1.3-0.1,1.8-0.2c1-0.2,1.8-0.5,2.5-0.9c1-0.5,1.9-1.4,2.6-2.5c0.3-0.6,0.6-1.1,0.8-1.7
		c0.2-0.6,0.3-1.1,0.3-1.8c0-0.8-0.1-1.5-0.3-2.2c-0.2-0.7-0.5-1.3-0.9-1.9c-0.8-1.2-1.9-2-3.4-2.5c-0.4-0.1-0.9-0.3-1.4-0.4
		c-0.5-0.1-1.1-0.2-1.7-0.3h-2.2l-2.1-0.1h-3.9L362.4,55.9L362.4,55.9z"/>
	<polygon class="st1" points="393.7,59.2 393.7,27.7 396.9,27.7 396.9,41.6 413.2,41.6 413.2,27.7 416.4,27.7 416.4,59.2 
		413.2,59.2 413.2,44.4 396.9,44.4 396.9,59.2 	"/>
	<path class="st1" d="M426.1,59.2l13.6-31.5h3.5l13.5,31.5l-3.4,0l-4.6-10.6H434l-4.6,10.6L426.1,59.2z M435.3,45.8h12.2l-6-14.4
		L435.3,45.8z"/>
	<polygon class="st1" points="470.7,59.2 470.7,30.6 463.4,30.6 463.4,27.7 481,27.7 481,30.6 473.8,30.6 473.8,59.2 	"/>
	<rect x="490.5" y="27.7" class="st1" width="3.2" height="31.5"/>
	<path class="st1" d="M503.3,59.2l13.6-31.5h3.5l13.5,31.5l-3.4,0L526,48.6h-14.7l-4.6,10.6L503.3,59.2z M512.5,45.8h12.2l-6-14.4
		L512.5,45.8z"/>
	<path class="st2" d="M215.9,83.3v-7.9h2.1c0.5,0,0.9,0,1.1,0.1c0.4,0.1,0.7,0.2,1,0.4c0.3,0.2,0.6,0.5,0.8,0.8
		c0.2,0.3,0.3,0.7,0.3,1.1c0,0.4-0.1,0.7-0.2,1c-0.1,0.3-0.4,0.6-0.7,0.8c-0.3,0.2-0.6,0.4-1,0.4c-0.3,0.1-0.6,0.1-1.1,0.1h-1.5v3.2
		H215.9z M216.7,79.4h1.4c0.4,0,0.8,0,1-0.1c0.2-0.1,0.4-0.1,0.6-0.2c0.2-0.1,0.4-0.3,0.5-0.6c0.1-0.2,0.2-0.5,0.2-0.8
		c0-0.3-0.1-0.6-0.2-0.9c-0.2-0.3-0.4-0.4-0.7-0.6c-0.2-0.1-0.3-0.1-0.5-0.1l-0.3,0h-0.3h-0.2h-0.2h-1L216.7,79.4L216.7,79.4z"/>
	<path class="st2" d="M229.3,83.3v-7.9h1.9h0.2h0.2h0.2c0.1,0,0.1,0,0.2,0c0.1,0,0.1,0,0.2,0c0.1,0,0.1,0,0.2,0c0.1,0,0.2,0,0.4,0.1
		c0.2,0.1,0.5,0.1,0.7,0.3c0.4,0.2,0.7,0.5,0.9,0.9c0.2,0.4,0.3,0.8,0.3,1.3c0,0.7-0.2,1.2-0.7,1.7c-0.5,0.5-1,0.7-1.6,0.7l2.2,2.9
		h-1l-2.7-3.6h0.2h0.2h0.1h0.1h0.1h0.1h0.1c0.2,0,0.3,0,0.3,0c0.3,0,0.5-0.1,0.7-0.2c0.3-0.1,0.6-0.4,0.7-0.7
		c0.2-0.3,0.3-0.6,0.3-0.9c0-0.3-0.1-0.5-0.2-0.8c-0.1-0.2-0.3-0.5-0.5-0.6c-0.2-0.2-0.5-0.3-0.9-0.3c-0.2,0-0.5,0-0.9,0H230v7.2
		L229.3,83.3L229.3,83.3L229.3,83.3z"/>
	<path class="st2" d="M246.6,75.3c1.1,0,2.1,0.4,2.9,1.2c0.8,0.8,1.2,1.7,1.2,2.9c0,1.1-0.4,2.1-1.2,2.9c-0.8,0.8-1.8,1.2-2.9,1.2
		c-1.1,0-2.1-0.4-2.9-1.2c-0.8-0.8-1.3-1.8-1.3-2.9c0-1.1,0.4-2.1,1.2-2.9C244.5,75.7,245.5,75.3,246.6,75.3 M246.6,76.1
		c-0.9,0-1.7,0.3-2.4,1c-0.7,0.7-1,1.4-1,2.4c0,0.9,0.3,1.7,1,2.3c0.7,0.6,1.5,1,2.4,1c0.9,0,1.7-0.3,2.4-1c0.7-0.6,1-1.4,1-2.4
		c0-0.9-0.3-1.7-1-2.3C248.3,76.4,247.5,76.1,246.6,76.1"/>
	<polygon class="st2" points="259.1,83.3 259.1,75.4 263.1,75.4 263.1,76.2 259.9,76.2 259.9,79 263,79 263,79.7 259.9,79.7 
		259.9,83.3 	"/>
	<polygon class="st2" points="271.4,83.3 271.4,75.4 275.7,75.4 275.7,76.2 272.2,76.2 272.2,79 275.6,79 275.6,79.7 272.2,79.7 
		272.2,82.6 275.7,82.6 275.7,83.3 	"/>
	<path class="st2" d="M283.6,81.1h0.8c0,0.4,0.2,0.8,0.5,1.1c0.3,0.3,0.7,0.5,1.1,0.5c0.5,0,0.8-0.1,1.2-0.4
		c0.3-0.3,0.5-0.7,0.5-1.1c0-0.2,0-0.4-0.1-0.6c-0.1-0.2-0.2-0.4-0.4-0.5c-0.2-0.1-0.4-0.2-0.6-0.3l-0.6-0.2c-0.1,0-0.1,0-0.2,0
		c-0.1,0-0.2,0-0.2-0.1l-0.3-0.1c-0.3-0.1-0.5-0.2-0.7-0.4c-0.2-0.2-0.4-0.4-0.5-0.6c-0.1-0.3-0.2-0.5-0.2-0.8
		c0-0.6,0.2-1.1,0.7-1.5c0.2-0.2,0.5-0.3,0.7-0.4c0.3-0.1,0.6-0.2,0.9-0.2c0.6,0,1.1,0.2,1.5,0.6c0.4,0.4,0.6,0.9,0.6,1.5h-0.8
		c0-0.4-0.1-0.7-0.4-1c-0.3-0.3-0.6-0.4-1-0.4c-0.4,0-0.7,0.1-0.9,0.4c-0.3,0.3-0.4,0.6-0.4,1c0,0.3,0.1,0.5,0.2,0.7
		c0.1,0.2,0.3,0.3,0.6,0.4l0.3,0.1l0.4,0.1c0.4,0.1,0.7,0.2,0.8,0.2c0.1,0,0.3,0.1,0.4,0.2c0.1,0.1,0.2,0.2,0.3,0.2
		c0.2,0.2,0.4,0.4,0.5,0.7c0.1,0.3,0.2,0.6,0.2,0.9c0,0.6-0.2,1.2-0.7,1.6c-0.5,0.5-1,0.7-1.7,0.7c-0.7,0-1.3-0.2-1.7-0.7
		C283.8,82.3,283.6,81.8,283.6,81.1"/>
	<path class="st2" d="M295.9,81.1h0.8c0,0.4,0.2,0.8,0.5,1.1c0.3,0.3,0.7,0.5,1.1,0.5c0.4,0,0.8-0.1,1.2-0.4
		c0.3-0.3,0.5-0.7,0.5-1.1c0-0.2,0-0.4-0.1-0.6c-0.1-0.2-0.2-0.4-0.4-0.5c-0.2-0.1-0.4-0.2-0.6-0.3l-0.6-0.2c-0.1,0-0.1,0-0.2,0
		c-0.1,0-0.2,0-0.2-0.1l-0.3-0.1c-0.3-0.1-0.5-0.2-0.7-0.4c-0.2-0.2-0.4-0.4-0.5-0.6c-0.1-0.3-0.2-0.5-0.2-0.8
		c0-0.6,0.2-1.1,0.7-1.5c0.2-0.2,0.4-0.3,0.7-0.4c0.3-0.1,0.6-0.2,0.9-0.2c0.6,0,1.1,0.2,1.5,0.6c0.4,0.4,0.6,0.9,0.6,1.5h-0.8
		c0-0.4-0.1-0.7-0.4-1c-0.3-0.3-0.6-0.4-1-0.4c-0.4,0-0.7,0.1-1,0.4c-0.3,0.3-0.4,0.6-0.4,1c0,0.3,0.1,0.5,0.2,0.7
		c0.1,0.2,0.3,0.3,0.6,0.4l0.3,0.1l0.4,0.1c0.4,0.1,0.7,0.2,0.8,0.2c0.1,0,0.3,0.1,0.4,0.2c0.1,0.1,0.2,0.2,0.3,0.2
		c0.2,0.2,0.4,0.4,0.5,0.7c0.1,0.3,0.2,0.6,0.2,0.9c0,0.6-0.2,1.2-0.7,1.6c-0.5,0.5-1,0.7-1.7,0.7c-0.7,0-1.2-0.2-1.7-0.7
		C296.2,82.3,295.9,81.8,295.9,81.1"/>
	<rect x="308.9" y="75.4" class="st2" width="0.8" height="7.9"/>
	<path class="st2" d="M322.2,75.3c1.1,0,2.1,0.4,2.9,1.2c0.8,0.8,1.2,1.7,1.2,2.9c0,1.1-0.4,2.1-1.2,2.9c-0.8,0.8-1.8,1.2-2.9,1.2
		c-1.1,0-2.1-0.4-2.9-1.2c-0.8-0.8-1.3-1.8-1.3-2.9c0-1.1,0.4-2.1,1.2-2.9C320.1,75.7,321,75.3,322.2,75.3 M322.2,76.1
		c-0.9,0-1.7,0.3-2.4,1c-0.7,0.7-1,1.4-1,2.4c0,0.9,0.3,1.7,1,2.3c0.7,0.6,1.5,1,2.4,1c0.9,0,1.7-0.3,2.4-1c0.7-0.6,1-1.4,1-2.4
		c0-0.9-0.3-1.7-1-2.3C323.9,76.4,323.1,76.1,322.2,76.1"/>
	<polygon class="st2" points="334.7,83.3 334.7,75.4 335.8,75.4 340.2,82 340.2,75.4 341,75.4 341,83.3 340.2,83.3 335.5,76.4 
		335.5,83.3 	"/>
	<path class="st2" d="M349,83.3l3.4-7.9h0.9l3.4,7.9h-0.9l-1.1-2.6H351l-1.1,2.6H349z M351.3,80h3l-1.5-3.6L351.3,80z"/>
	<polygon class="st2" points="364.6,83.3 364.6,75.4 365.4,75.4 365.4,82.6 368.7,82.6 368.7,83.3 	"/>
	<path class="st2" d="M394,77.5h-0.9c-0.3-0.4-0.7-0.8-1.2-1c-0.5-0.2-1-0.4-1.6-0.4c-0.9,0-1.6,0.3-2.3,1c-0.7,0.7-1,1.4-1,2.3
		c0,0.9,0.3,1.7,1,2.4c0.7,0.7,1.5,1,2.4,1c0.5,0,1-0.1,1.5-0.4s0.9-0.6,1.2-1.1h0.9c-0.3,0.7-0.8,1.2-1.5,1.6
		c-0.7,0.4-1.4,0.6-2.1,0.6c-1.2,0-2.1-0.4-2.9-1.2c-0.8-0.8-1.2-1.8-1.2-2.9c0-1.1,0.4-2.1,1.2-2.8c0.8-0.8,1.8-1.2,2.9-1.2
		c0.4,0,0.8,0.1,1.2,0.2c0.2,0.1,0.4,0.1,0.5,0.2c0.2,0.1,0.4,0.2,0.5,0.3c0.3,0.2,0.5,0.4,0.8,0.6C393.7,76.9,393.9,77.2,394,77.5"
		/>
	<path class="st2" d="M406.2,75.3c1.1,0,2.1,0.4,2.9,1.2c0.8,0.8,1.2,1.7,1.2,2.9c0,1.1-0.4,2.1-1.2,2.9c-0.8,0.8-1.8,1.2-2.9,1.2
		c-1.1,0-2.1-0.4-2.9-1.2c-0.8-0.8-1.3-1.8-1.3-2.9c0-1.1,0.4-2.1,1.2-2.9C404.1,75.7,405.1,75.3,406.2,75.3 M406.2,76.1
		c-0.9,0-1.7,0.3-2.4,1c-0.7,0.7-1,1.4-1,2.4c0,0.9,0.3,1.7,1,2.3c0.7,0.6,1.5,1,2.4,1c0.9,0,1.7-0.3,2.4-1c0.7-0.6,1-1.4,1-2.4
		c0-0.9-0.3-1.7-1-2.3C407.9,76.4,407.1,76.1,406.2,76.1"/>
	<path class="st2" d="M418.7,83.3v-7.9h1.9h0.2h0.2h0.2c0.1,0,0.1,0,0.2,0c0.1,0,0.1,0,0.2,0c0.1,0,0.1,0,0.2,0c0.1,0,0.2,0,0.4,0.1
		c0.2,0.1,0.5,0.1,0.7,0.3c0.4,0.2,0.7,0.5,0.9,0.9c0.2,0.4,0.3,0.8,0.3,1.3c0,0.7-0.2,1.2-0.7,1.7c-0.5,0.5-1,0.7-1.6,0.7l2.2,2.9
		h-1l-2.7-3.6h0.2h0.2h0.1h0.1h0.1h0.1h0.1c0.2,0,0.3,0,0.3,0c0.3,0,0.5-0.1,0.7-0.2c0.3-0.1,0.6-0.4,0.7-0.7
		c0.2-0.3,0.3-0.6,0.3-0.9c0-0.3-0.1-0.5-0.2-0.8c-0.1-0.2-0.3-0.5-0.5-0.6c-0.2-0.2-0.5-0.3-0.9-0.3c-0.2,0-0.5,0-0.9,0h-1.2v7.2
		L418.7,83.3L418.7,83.3L418.7,83.3z"/>
	<path class="st2" d="M432.2,83.3v-7.9h2.1c0.5,0,0.9,0,1.1,0.1c0.4,0.1,0.7,0.2,1,0.4c0.3,0.2,0.6,0.5,0.8,0.8
		c0.2,0.3,0.3,0.7,0.3,1.1c0,0.4-0.1,0.7-0.2,1c-0.1,0.3-0.4,0.6-0.7,0.8c-0.3,0.2-0.6,0.4-1,0.4c-0.3,0.1-0.6,0.1-1.1,0.1H433v3.2
		H432.2z M433,79.4h1.3c0.4,0,0.8,0,1-0.1c0.2,0,0.4-0.1,0.6-0.2c0.2-0.1,0.4-0.3,0.5-0.6c0.1-0.2,0.2-0.5,0.2-0.8
		c0-0.3-0.1-0.6-0.2-0.9c-0.2-0.3-0.4-0.4-0.7-0.6c-0.2-0.1-0.3-0.1-0.5-0.1l-0.3,0h-0.3h-0.3h-0.2h-1L433,79.4L433,79.4L433,79.4z"
		/>
	<path class="st2" d="M449.4,75.3c1.1,0,2.1,0.4,2.9,1.2c0.8,0.8,1.3,1.7,1.3,2.9c0,1.1-0.4,2.1-1.2,2.9c-0.8,0.8-1.8,1.2-2.9,1.2
		c-1.1,0-2.1-0.4-2.9-1.2c-0.8-0.8-1.3-1.8-1.3-2.9c0-1.1,0.4-2.1,1.2-2.9C447.3,75.7,448.3,75.3,449.4,75.3 M449.4,76.1
		c-0.9,0-1.7,0.3-2.4,1c-0.7,0.7-1,1.4-1,2.4c0,0.9,0.3,1.7,1,2.3c0.7,0.6,1.5,1,2.4,1c0.9,0,1.7-0.3,2.4-1c0.7-0.6,1-1.4,1-2.4
		c0-0.9-0.3-1.7-1-2.3C451.2,76.4,450.4,76.1,449.4,76.1"/>
	<path class="st2" d="M462,83.3v-7.9h1.9h0.2h0.2h0.2c0.1,0,0.1,0,0.2,0c0.1,0,0.1,0,0.2,0c0.1,0,0.1,0,0.2,0c0.1,0,0.2,0,0.4,0.1
		c0.2,0.1,0.5,0.1,0.7,0.3c0.4,0.2,0.7,0.5,0.9,0.9c0.2,0.4,0.3,0.8,0.3,1.3c0,0.7-0.2,1.2-0.7,1.7c-0.5,0.5-1,0.7-1.6,0.7l2.2,2.9
		h-1l-2.7-3.6h0.2h0.2h0.1h0.1h0.1h0.1h0.1c0.2,0,0.3,0,0.3,0c0.3,0,0.5-0.1,0.7-0.2c0.3-0.1,0.6-0.4,0.8-0.7
		c0.2-0.3,0.3-0.6,0.3-0.9c0-0.3-0.1-0.5-0.2-0.8c-0.1-0.2-0.3-0.5-0.5-0.6c-0.2-0.2-0.5-0.3-0.9-0.3c-0.2,0-0.5,0-0.9,0h-1.2v7.2
		L462,83.3L462,83.3L462,83.3z"/>
	<path class="st2" d="M474.8,83.3l3.4-7.9h0.9l3.4,7.9h-0.9l-1.1-2.6h-3.7l-1.1,2.6H474.8z M477.1,80h3l-1.5-3.6L477.1,80z"/>
	<polygon class="st2" points="491.5,83.3 491.5,76.2 489.7,76.2 489.7,75.4 494.1,75.4 494.1,76.2 492.3,76.2 492.3,83.3 	"/>
	<rect x="502.1" y="75.4" class="st2" width="0.8" height="7.9"/>
	<path class="st2" d="M515.4,75.3c1.1,0,2.1,0.4,2.9,1.2c0.8,0.8,1.2,1.7,1.2,2.9c0,1.1-0.4,2.1-1.2,2.9c-0.8,0.8-1.8,1.2-2.9,1.2
		c-1.1,0-2.1-0.4-2.9-1.2c-0.8-0.8-1.2-1.8-1.2-2.9c0-1.1,0.4-2.1,1.2-2.9C513.2,75.7,514.2,75.3,515.4,75.3 M515.4,76.1
		c-0.9,0-1.7,0.3-2.4,1c-0.7,0.7-1,1.4-1,2.4c0,0.9,0.3,1.7,1,2.3c0.7,0.6,1.5,1,2.4,1c0.9,0,1.7-0.3,2.4-1c0.7-0.6,1-1.4,1-2.4
		c0-0.9-0.3-1.7-1-2.3C517.1,76.4,516.3,76.1,515.4,76.1"/>
	<polygon class="st2" points="527.9,83.3 527.9,75.4 528.9,75.4 533.3,82 533.3,75.4 534.1,75.4 534.1,83.3 533.3,83.3 528.7,76.4 
		528.7,83.3 	"/>
</g>
</svg>
