<svg width="50" height="50" viewBox="0 0 50 50" fill="none" xmlns="http://www.w3.org/2000/svg">
<circle cx="25" cy="25" r="24.5" stroke="white"/>
<line x1="14" y1="19" x2="39" y2="20" stroke="white" stroke-width="2"/>
<line x1="14" y1="25" x2="39" y2="25" stroke="white" stroke-width="2"/>
<line x1="14" y1="31" x2="39" y2="31" stroke="white" stroke-width="2"/>
<line x1="11" y1="19" x2="13" y2="19" stroke="white" stroke-width="2"/>
<line x1="11" y1="19" x2="13" y2="19" stroke="white" stroke-width="2"/>
<line x1="11" y1="19" x2="13" y2="19" stroke="white" stroke-width="2"/>
<line x1="11" y1="19" x2="13" y2="19" stroke="white" stroke-width="2"/>
<line x1="11" y1="25" x2="13" y2="25" stroke="white" stroke-width="2"/>
<line x1="11" y1="25" x2="13" y2="25" stroke="white" stroke-width="2"/>
<line x1="11" y1="25" x2="13" y2="25" stroke="white" stroke-width="2"/>
<line x1="11" y1="25" x2="13" y2="25" stroke="white" stroke-width="2"/>
<line x1="11" y1="31" x2="13" y2="31" stroke="white" stroke-width="2"/>
<line x1="11" y1="31" x2="13" y2="31" stroke="white" stroke-width="2"/>
<line x1="11" y1="31" x2="13" y2="31" stroke="white" stroke-width="2"/>
<line x1="11" y1="31" x2="13" y2="31" stroke="white" stroke-width="2"/>
</svg>
